<svg width="120" height="52" viewBox="0 0 120 52" fill="none" xmlns="http://www.w3.org/2000/svg">
<g clip-path="url(#clip0)">
<path d="M14.5125 20.1612C14.1789 20.5735 13.7037 20.8468 13.1795 20.9276C12.9796 20.9276 12.8546 20.8527 12.813 20.6944C12.7786 20.4097 12.8248 20.121 12.9463 19.8613C13.1381 19.3268 13.3606 18.8038 13.6127 18.295C13.921 17.6369 14.3292 16.8121 14.8457 15.7957L15.7455 13.9796C16.0954 13.2548 16.4786 12.48 16.8952 11.6469C17.3117 10.8138 17.7283 9.98068 18.1781 9.04761L19.4778 6.39834C20.4775 4.35724 21.5272 2.23283 22.6436 -0.0332031L17.4117 0.733251C16.2565 3.0215 15.1901 5.16535 14.2126 7.1648L12.9713 9.6641L12.7963 9.53914C12.1944 9.20991 11.516 9.04605 10.8302 9.06427C9.47813 9.05053 8.14582 9.38935 6.96459 10.0473C5.80981 10.6885 4.78207 11.5356 3.9321 12.5466C3.10824 13.4998 2.44427 14.5802 1.96598 15.7457C1.53543 16.7483 1.29258 17.8213 1.24951 18.9115C1.18427 19.8007 1.43181 20.6848 1.94932 21.4108C2.23378 21.755 2.59803 22.0245 3.01039 22.1958C3.42274 22.3672 3.87071 22.4352 4.31533 22.3939C5.00924 22.3982 5.69045 22.2077 6.28145 21.8441C6.91089 21.4599 7.47364 20.976 7.94765 20.4111C8.08928 20.2445 8.21424 20.0612 8.34754 19.8779C8.34754 19.9779 8.30589 20.0695 8.29755 20.1612C8.24361 20.4386 8.24836 20.7243 8.31149 20.9998C8.37463 21.2753 8.49475 21.5345 8.66412 21.7607C8.94143 22.0107 9.27008 22.1969 9.62701 22.3062C9.98394 22.4156 10.3605 22.4455 10.7302 22.3939C11.2691 22.3949 11.8043 22.3047 12.3131 22.1273C12.8098 21.9528 13.2807 21.7118 13.7127 21.4108C14.1405 21.113 14.5369 20.7725 14.8957 20.3945C15.2317 20.003 15.5433 19.5912 15.8288 19.1615C16.5316 18.1769 17.1186 17.1146 17.5783 15.9957C17.0201 16.9038 16.4786 17.7285 15.9121 18.495C15.4902 19.0864 15.0223 19.6436 14.5125 20.1612ZM11.7133 12.1801C11.33 12.9465 10.9968 13.638 10.6969 14.2628L10.0971 15.4875C9.83879 15.9624 9.58886 16.4289 9.34726 16.8621C9.10566 17.2953 8.76409 17.8702 8.46418 18.345C8.16426 18.8199 7.86434 19.2448 7.58109 19.6113C7.32587 19.9313 7.04741 20.232 6.74799 20.5111C6.57858 20.6996 6.34883 20.8234 6.09817 20.861C5.64829 20.861 5.41502 20.5944 5.3817 20.0279C5.37285 19.3454 5.49151 18.6673 5.7316 18.0284C6.03567 17.1343 6.40892 16.2653 6.84796 15.4292C7.31072 14.5177 7.85148 13.6481 8.46418 12.8299C9.00914 12.0902 9.6413 11.4188 10.347 10.8304C10.8401 10.3446 11.4895 10.0493 12.1798 9.99734C12.3589 10.0022 12.5349 10.0448 12.6963 10.1223C12.3464 10.8888 12.0215 11.5552 11.7133 12.1801ZM32.3742 18.4617C31.9417 19.0543 31.4625 19.6115 30.9413 20.1279C30.6077 20.5402 30.1325 20.8135 29.6083 20.8943C29.4084 20.8943 29.2834 20.8193 29.2417 20.661C29.2074 20.3763 29.2535 20.0877 29.375 19.8279C29.5083 19.4364 29.7249 18.9199 30.0249 18.2617C30.3248 17.6036 30.7247 16.7788 31.2412 15.7624C31.7577 14.746 32.1992 13.8546 32.5908 13.0298C32.9824 12.2051 33.3239 11.4969 33.6405 10.8971C33.9571 10.2973 34.282 9.5558 34.5736 8.99762L29.575 9.6891C29.4583 9.61412 29.35 9.52248 29.2167 9.4475C28.6111 9.13059 27.9338 8.97562 27.2506 8.99762C25.899 8.98768 24.5677 9.32626 23.385 9.98068C22.2302 10.6219 21.2025 11.4689 20.3525 12.48C19.5267 13.4349 18.8575 14.5147 18.3698 15.6791C17.9171 16.6876 17.6625 17.7736 17.62 18.8782C17.5547 19.7674 17.8023 20.6515 18.3198 21.3775C18.6042 21.7217 18.9685 21.9912 19.3808 22.1625C19.7932 22.3338 20.2412 22.4018 20.6858 22.3606C21.3797 22.3649 22.0609 22.1744 22.6519 21.8107C23.2813 21.4266 23.8441 20.9426 24.3181 20.3778C24.4597 20.2112 24.5847 20.0279 24.718 19.8529C24.718 19.9446 24.6763 20.0362 24.6597 20.1279C24.6073 20.4054 24.6128 20.6907 24.6759 20.9659C24.739 21.2412 24.8582 21.5004 25.0262 21.7274C25.3039 21.9769 25.6325 22.1627 25.9894 22.2721C26.3462 22.3815 26.7226 22.4116 27.0923 22.3606C27.6316 22.3662 28.1676 22.276 28.6752 22.094C29.172 21.9194 29.6428 21.6784 30.0748 21.3775C30.5043 21.0819 30.9009 20.7411 31.2578 20.3611C31.6121 19.986 31.9379 19.585 32.2326 19.1615C32.9552 18.1747 33.5487 17.0996 33.9988 15.9624C33.4489 16.9038 32.9074 17.7285 32.3742 18.4617ZM28.3753 11.6635C28.0837 12.2384 27.7671 12.8799 27.4256 13.5797C27.209 14.0129 27.0007 14.4544 26.7924 14.896C26.4342 15.5791 26.0843 16.2289 25.7427 16.8288C25.4011 17.4286 25.1595 17.8368 24.8596 18.3117C24.5597 18.7866 24.2681 19.2115 24.0265 19.578C23.7737 19.9 23.495 20.2009 23.1934 20.4778C23.0114 20.6769 22.7621 20.8015 22.4936 20.8277C22.0437 20.8277 21.8105 20.55 21.7938 19.9946C21.7927 19.3128 21.9111 18.636 22.1437 17.9951C22.437 17.0969 22.8106 16.227 23.2601 15.3958C23.7422 14.4846 24.2996 13.6152 24.9263 12.7966C25.4629 12.0704 26.0838 11.4105 26.7758 10.8304C27.2688 10.3446 27.9183 10.0493 28.6086 9.99734C28.7839 10.0032 28.9564 10.0428 29.1168 10.114C28.8835 10.6722 28.6336 11.172 28.3753 11.6635ZM43.1379 9.03095L38.6391 9.76408C39.2238 11.1855 39.6756 12.6581 39.9888 14.1629C40.2175 15.208 40.3292 16.2754 40.322 17.3453C40.3296 18.0918 40.1939 18.8328 39.9221 19.528C39.7303 20.0256 39.4479 20.4832 39.089 20.8777C38.8244 21.1701 38.5007 21.403 38.1393 21.5608C37.8932 21.6764 37.6275 21.7442 37.3562 21.7607C37.2205 21.7712 37.0858 21.731 36.9781 21.6479C36.8704 21.5648 36.7973 21.4447 36.773 21.3109C36.6941 20.9373 36.6941 20.5514 36.773 20.1779C36.8796 19.6714 37.0301 19.1752 37.2229 18.6949C37.4281 18.1797 37.6675 17.6788 37.9393 17.1953C38.1773 16.7745 38.4564 16.3782 38.7724 16.0123C38.9657 15.755 39.2332 15.5631 39.5389 15.4625C38.6758 15.1 37.7232 15.0071 36.8063 15.1959C36.0824 15.3583 35.4149 15.7111 34.873 16.2179C34.3311 16.7247 33.9344 17.367 33.7238 18.0784C33.5188 18.7314 33.4901 19.4269 33.6405 20.0945C33.7929 20.7523 34.1628 21.3393 34.6902 21.7607C35.3627 22.2425 36.1806 22.4778 37.0062 22.4272C38.4007 22.4499 39.7812 22.1476 41.0385 21.5441C42.2037 20.9876 43.1694 20.0859 43.8044 18.9615C44.4833 17.6832 44.7892 16.2398 44.6874 14.796C44.5647 12.8002 44.0375 10.8501 43.1379 9.06427V9.03095ZM60.9079 18.4617C60.4594 19.0512 59.9694 19.608 59.4417 20.1279C59.1092 20.5415 58.6334 20.815 58.1087 20.8943C57.7088 20.8943 57.6838 20.5111 58.0254 19.7446C58.367 18.9782 59.0501 17.6619 60.0748 15.7957C61.3689 13.4908 61.8688 11.7857 61.5744 10.6805C61.2828 9.58079 60.3748 9.01428 58.8418 9.01428C58.1271 9.0023 57.4214 9.17444 56.7924 9.51414C56.1714 9.85599 55.609 10.2947 55.1262 10.8138C54.9431 11.0127 54.7707 11.2213 54.6097 11.4386L60.2081 0.000120953L54.9846 0.733251L44.3875 22.3939L49.6444 21.6608L51.9604 16.9038C52.2603 16.3706 52.5519 15.8541 52.8435 15.3625C53.1351 14.871 53.5183 14.2628 53.8766 13.6963C54.2348 13.1298 54.5764 12.6883 54.9096 12.2634C55.1957 11.892 55.5195 11.5514 55.876 11.247C56.1024 11.0288 56.3961 10.8937 56.7091 10.8638C56.9757 10.8638 57.1173 10.9887 57.1257 11.2303C57.1162 11.5741 57.0428 11.9132 56.909 12.2301C56.7083 12.7526 56.4803 13.2643 56.2259 13.763C55.926 14.3628 55.6011 15.0043 55.2428 15.6958L54.4931 17.162C54.2348 17.6702 54.0099 18.1701 53.8099 18.6616C53.6208 19.1117 53.4812 19.581 53.3934 20.0612C53.3154 20.4483 53.3326 20.8485 53.4434 21.2276C53.4993 21.4057 53.59 21.571 53.7101 21.714C53.8302 21.857 53.9773 21.9748 54.1432 22.0607C54.6324 22.2885 55.1705 22.3916 55.7094 22.3606C56.2483 22.3622 56.7836 22.272 57.2923 22.094C57.789 21.9194 58.2598 21.6784 58.6919 21.3775C59.1213 21.0819 59.5179 20.7411 59.8749 20.3611C60.2152 19.9827 60.5297 19.582 60.8163 19.1615C61.5155 18.1656 62.097 17.0921 62.5492 15.9624C62.016 16.9038 61.4661 17.7285 60.9079 18.4617Z" fill="#F34441"/>
<path d="M7.16468 48.22C8.8956 48.3077 10.6016 47.7794 11.98 46.7287C12.5827 46.2053 13.058 45.5513 13.3698 44.8165C13.6817 44.0816 13.8218 43.2854 13.7795 42.4882C13.7991 41.2713 13.379 40.0881 12.5965 39.1558C11.8234 38.2082 10.7297 37.5768 9.52236 37.3813C10.5179 37.1201 11.3977 36.5337 12.0217 35.7151C12.6272 34.9185 12.947 33.9413 12.9297 32.9409C12.9845 32.1622 12.8485 31.3818 12.5335 30.6675C12.2185 29.9533 11.7339 29.3267 11.1219 28.842C9.64702 27.8594 7.89267 27.3828 6.1233 27.4841H0V48.22H7.16468ZM7.43127 38.2228C8.05668 38.1799 8.68433 38.2632 9.27686 38.4679C9.86939 38.6726 10.4147 38.9944 10.8803 39.4141C11.2801 39.8167 11.5922 40.2976 11.7973 40.8267C12.0023 41.3557 12.0957 41.9214 12.0716 42.4882C12.1059 43.0791 12.006 43.6701 11.7795 44.2168C11.553 44.7636 11.2057 45.2521 10.7637 45.6457C9.74214 46.4485 8.46157 46.8487 7.16468 46.7704H1.6662V38.2394L7.43127 38.2228ZM1.6662 28.942H6.04832C7.39391 28.8514 8.73261 29.1993 9.86393 29.9334C10.3068 30.2807 10.6582 30.7309 10.8876 31.2448C11.117 31.7588 11.2174 32.321 11.1802 32.8826C11.2197 33.4351 11.1287 33.9892 10.9145 34.5C10.7003 35.0109 10.369 35.4642 9.94724 35.8234C8.9334 36.5412 7.70473 36.891 6.46487 36.8148H1.6662V28.942Z" fill="#333333"/>
<path d="M32.6829 36.1733C32.7896 33.8093 32.0013 31.492 30.4752 29.6835C29.7368 28.8559 28.824 28.2026 27.8026 27.7704C26.7812 27.3382 25.6766 27.138 24.5685 27.1842C23.4711 27.1356 22.3769 27.335 21.3672 27.7678C20.3576 28.2005 19.4585 28.8553 18.7368 29.6835C17.2343 31.5029 16.4622 33.8162 16.5708 36.1733V39.5057C16.4614 41.863 17.2336 44.1765 18.7368 45.9956C19.4604 46.8214 20.3598 47.4746 21.369 47.9071C22.3782 48.3396 23.4715 48.5405 24.5685 48.4949C25.6753 48.5398 26.7782 48.339 27.7981 47.9069C28.8179 47.4747 29.7294 46.822 30.4669 45.9956C31.9907 44.1862 32.7761 41.8687 32.6663 39.5057V36.1733H32.6829ZM31.0167 39.5641C31.1209 41.5224 30.5309 43.4547 29.3505 45.0209C28.7763 45.7036 28.0517 46.2439 27.2336 46.5995C26.4155 46.955 25.5261 47.1162 24.6352 47.0703C23.7525 47.1115 22.8726 46.9444 22.0665 46.5826C21.2603 46.2208 20.5507 45.6744 19.9948 44.9875C18.8208 43.4214 18.2314 41.494 18.3286 39.5391V36.1567C18.2385 34.2129 18.8276 32.2984 19.9948 30.7415C20.548 30.0597 21.2543 29.518 22.0563 29.1604C22.8582 28.8029 23.7332 28.6395 24.6102 28.6837C25.5026 28.642 26.3926 28.8059 27.2116 29.1626C28.0306 29.5194 28.7567 30.0596 29.3339 30.7415C30.5139 32.2918 31.1044 34.2111 31.0001 36.1567V39.5641H31.0167Z" fill="#333333"/>
<path d="M48.5363 27.4924V41.5302C48.5845 42.2894 48.4655 43.05 48.1877 43.7583C47.9099 44.4665 47.48 45.1051 46.9284 45.6291C45.771 46.6162 44.2826 47.1283 42.7629 47.062C41.2639 47.1314 39.7967 46.6145 38.6723 45.6207C38.1343 45.0903 37.7162 44.4508 37.446 43.7452C37.1758 43.0396 37.0599 42.2843 37.1061 41.5302V27.4924H35.4399V41.5385C35.3767 42.4986 35.5261 43.4608 35.8775 44.3565C36.2288 45.2523 36.7735 46.0594 37.4727 46.7204C38.9616 47.9673 40.8645 48.6095 42.8045 48.5199C44.7629 48.6061 46.6846 47.9685 48.203 46.7288C48.9127 46.0721 49.4671 45.2656 49.826 44.3677C50.1848 43.4699 50.339 42.5034 50.2775 41.5385V27.4924H48.5363Z" fill="#333333"/>
<path d="M69.0395 36.1735C69.1429 33.81 68.355 31.4938 66.8318 29.6836C66.0934 28.8561 65.1806 28.2027 64.1592 27.7705C63.1378 27.3383 62.0332 27.1381 60.9251 27.1843C59.8278 27.1369 58.734 27.337 57.7245 27.7696C56.715 28.2022 55.8158 28.8564 55.0934 29.6836C53.5944 31.505 52.8228 33.8169 52.9273 36.1735V39.5059C52.8171 41.8647 53.5927 44.1795 55.1017 45.9958C55.8241 46.823 56.7234 47.4771 57.7328 47.9098C58.7423 48.3424 59.8362 48.5424 60.9334 48.4951C61.5905 48.5103 62.2472 48.4517 62.8912 48.3201C63.506 48.1889 64.102 47.9818 64.6657 47.7036L68.423 51.2443L69.606 50.1779L66.0487 46.8455C67.0272 46.0257 67.786 44.9748 68.2564 43.788C68.7966 42.4523 69.0629 41.0216 69.0395 39.5809V36.2485V36.1735ZM67.3733 39.5642C67.4775 41.5226 66.8875 43.4549 65.7071 45.021C65.1316 45.7044 64.4056 46.245 63.586 46.6006C62.7664 46.9562 61.8756 47.117 60.9834 47.0705C60.0963 47.1184 59.2105 46.9545 58.3993 46.5923C57.588 46.2302 56.8746 45.6801 56.318 44.9877C55.144 43.4215 54.5546 41.4941 54.6518 39.5392V36.1568C54.5618 34.2131 55.1509 32.2986 56.318 30.7417C56.8713 30.0598 57.5776 29.5181 58.3795 29.1606C59.1815 28.803 60.0565 28.6397 60.9334 28.6839C61.825 28.639 62.7148 28.8015 63.533 29.1585C64.3512 29.5155 65.0754 30.0575 65.6488 30.7417C66.8288 32.292 67.4194 34.2113 67.315 36.1568V39.5642H67.3733Z" fill="#333333"/>
<path d="M85.0516 27.4924V41.5302C85.0998 42.2894 84.9808 43.05 84.703 43.7583C84.4252 44.4665 83.9953 45.1051 83.4437 45.6291C82.2855 46.6148 80.7977 47.1266 79.2782 47.062C77.7816 47.1319 76.3169 46.6148 75.196 45.6207C74.6562 45.0916 74.2368 44.4523 73.9665 43.7464C73.6962 43.0404 73.5814 42.2845 73.6297 41.5302V27.4924H71.9135V41.5385C71.8503 42.4986 71.9997 43.4608 72.3511 44.3565C72.7025 45.2523 73.2472 46.0594 73.9463 46.7204C75.4331 47.9653 77.3327 48.6074 79.2698 48.5199C81.231 48.6074 83.1557 47.9698 84.6767 46.7288C85.3839 46.0706 85.9361 45.2636 86.2934 44.366C86.6507 43.4684 86.8042 42.5027 86.7428 41.5385V27.4924H85.0516Z" fill="#333333"/>
<path d="M102.321 36.7315H92.324V28.942H103.687V27.4924H90.6494V48.22H103.779V46.7704H92.3406V38.1811H102.338L102.321 36.7315Z" fill="#333333"/>
<path d="M119.967 27.4924H104.029V28.942H111.161V48.22H112.827V28.942H119.967V27.4924Z" fill="#333333"/>
</g>
<defs>
<clipPath id="clip0">
<rect width="120" height="51.2358" fill="white"/>
</clipPath>
</defs>
</svg>
